<svg xmlns="http://www.w3.org/2000/svg" viewBox="0 0 56.539 53.803"><g fill="#fff" fill-rule="evenodd"><path d="M50.335 25.837c0 1.366-1.104 2.463-2.461 2.463H37.316v-3.172H46.218c.525 0 .947-.428.947-.95V13.69c0-.523-.422-.947-.947-.947h-4.783c-.518 0-.941.424-.941.947V18.463c0 .524.423.949.941.949h3.819v3.173H39.78c-1.362 0-2.464-1.1-2.464-2.46V12.03c0-1.36 1.102-2.462 2.464-2.462h8.094c1.357 0 2.461 1.102 2.461 2.462zm-.009 18.413h-3.128v-9.698H45c-.518 0-.931.418-.931.934v8.764H40.94v-9.698h-2.198c-.517 0-.931.418-.931.934v8.772h-3.127V33.845c0-1.333 1.083-2.419 2.425-2.419h13.217ZM32.318 22.585H24.22c-1.36 0-2.459-1.1-2.459-2.46V12.03c0-1.36 1.099-2.462 2.459-2.462h8.098c1.357 0 2.46 1.102 2.46 2.462v8.095c0 1.36-1.103 2.46-2.46 2.46zm-.14 19.239c0 1.34-1.086 2.426-2.424 2.426h-7.977c-1.342 0-2.426-1.086-2.426-2.426v-7.979c0-1.333 1.084-2.419 2.426-2.419h7.977c1.338 0 2.424 1.086 2.424 2.419zM19.221 25.837c0 1.366-1.103 2.463-2.462 2.463H6.203v-3.172h8.9c.524 0 .944-.428.944-.95V13.69c0-.523-.42-.947-.944-.947h-4.784c-.523 0-.943.424-.943.947V18.463c0 .524.42.949.943.949h3.822v3.173H8.664c-1.362 0-2.461-1.1-2.461-2.46V12.03c0-1.36 1.099-2.462 2.461-2.462h8.095c1.359 0 2.462 1.102 2.462 2.462zm-2.374 8.715H10.27c-.516 0-.93.418-.93.934 0 0 .002 0 .002.006H9.34v4.694h.002l-.002.004c0 .514.414.936.93.936h6.577v3.132H8.64v-.008c-1.344 0-2.43-1.086-2.43-2.426v-7.979c0-1.333 1.086-2.419 2.43-2.419h8.207zM52.951.011H3.587C1.606.011 0 1.617 0 3.597v46.631c0 1.98 1.606 3.586 3.587 3.586h49.364c1.982 0 3.588-1.606 3.588-3.586V3.597c0-1.98-1.606-3.586-3.588-3.586z" mask="url(#mask-2)" transform="translate(0 -.011)"/><path d="M30.6612 12.7323c.525 0 .936.424.936.947V18.4523c0 .524-.411.949-.936.949h-4.781c-.525 0-.946-.425-.946-.949V13.6793c0-.523.421-.947.946-.947h4.781M28.1226 34.5409c.514 0 .928.418.928.935v4.699c0 .515-.414.936-.928.936-.005 0-.006-.005-.011-.005v.005h-4.692v-.005s-.005.005-.01.005c-.516 0-.93-.421-.93-.936v-4.699c0-.517.414-.935.93-.935h4.713"/></g></svg>