<svg xmlns="http://www.w3.org/2000/svg" width="1200" height="1200" fill="none"><path d="M12.5 0A12.5 12.584 0 0 0 0 12.584a12.5 12.584 0 0 0 12.5 12.584A12.5 12.584 0 0 0 25 12.584 12.5 12.584 0 0 0 12.5 0ZM25 12.584a12.5 12.584 0 0 0 12.5 12.584A12.5 12.584 0 0 0 50 12.584 12.5 12.584 0 0 0 37.5 0 12.5 12.584 0 0 0 25 12.584Zm25 0a12.5 12.584 0 0 0 12.5 12.584A12.5 12.584 0 0 0 75 12.584 12.5 12.584 0 0 0 62.5 0 12.5 12.584 0 0 0 50 12.584Zm12.5 12.584H0v37.251a12.5 12.586 0 0 0 12.5 12.587H25v-24.67h49.994V25.168Z" class="fills" style="fill:#fff;fill-opacity:1;stroke-width:1.01971" transform="scale(16.0013 15.9988)"/><text xml:space="preserve" x="73.092" y="24.666" style="font-style:normal;font-variant:normal;font-weight:400;font-stretch:normal;font-size:1.33333px;font-family:Cantarell;-inkscape-font-specification:&quot;Cantarell, @wght=700&quot;;font-variant-ligatures:normal;font-variant-caps:normal;font-variant-numeric:normal;font-variant-east-asian:normal;font-variation-settings:&quot;wght&quot;700;writing-mode:lr-tb;direction:ltr;fill:#fff;stroke-width:1.87043" transform="rotate(.03) scale(16.00005)"><tspan x="73.092" y="24.666" style="font-style:normal;font-variant:normal;font-weight:400;font-stretch:normal;font-size:1.33333px;font-family:Cantarell;-inkscape-font-specification:&quot;Cantarell, @wght=700&quot;;font-variant-ligatures:normal;font-variant-caps:normal;font-variant-numeric:normal;font-variant-east-asian:normal;font-variation-settings:&quot;wght&quot;700;stroke-width:1.87043">TM</tspan></text></svg>