<svg xmlns="http://www.w3.org/2000/svg" viewBox="0 0 99.7479 115.1168"><path fill="#fff" d="M56.0917 32.0146c-6.6146 0-8.9959 2.3812-8.9959 8.9958v80.1688l.5292 3.7041L48.948 127l2.1166 1.323 43.127 18.2562a6.6146 6.6146 0 0 0 5.2917 0l43.1271-18.2563L144.9917 127c.7937-.5292.7937-1.323 1.0583-2.1167l.7937-3.7041V41.0104c0-6.6146-2.6458-8.9958-9.2604-8.9958zM120.65 46.0375h3.4396c5.5562 0 8.202 2.6458 8.202 8.202v8.996h-6.6145v-8.7313c0-1.764-.882-2.6459-2.6458-2.6459h-1.0584c-1.7639 0-2.6458.882-2.6458 2.6459v27.7812c0 1.764.882 2.6458 2.6458 2.6458h1.323c1.5874 0 2.3812-.8819 2.3812-2.6458v-9.7896h6.8792v10.3188c0 5.468-2.8223 8.202-8.4667 8.202h-3.175c-5.6445 0-8.4667-2.734-8.4667-8.202v-28.575c0-5.468 2.734-8.2021 8.2021-8.2021zm-59.2667.5292h15.3459v6.0854h-8.4667v12.4354H76.2v6.0854h-7.9375v13.2292h8.4667v6.0854H61.3833Zm18.7854 0h10.5834c5.468-.1764 8.202 2.5576 8.202 8.202v11.6417c0 5.468-2.734 8.2021-8.202 8.2021h-3.9688v15.875h-6.6146zm21.9605 0h6.6146v43.9208h-6.6146zm-15.3459 5.8208v16.1396h2.9104c1.764 0 2.6459-.882 2.6459-2.6459V55.0333c0-1.7639-.882-2.6458-2.6459-2.6458zm39.4064 48.332c.2315-.008.4134.0206.5457.0867 1.2347 0 2.293.1764 3.175.5292l2.3813 1.323-1.8521 2.6457a7.673 7.673 0 0 0-1.8521-1.0583 5.8208 5.8208 0 0 0-1.852-.2646l-1.0584.2646-.5292.5292.2646.5291.2646.2646.7937.2646 1.0584.2646 2.1166.5292 1.5875.7937a3.175 3.175 0 0 1 1.323 2.9104l-.2646 1.8521a3.175 3.175 0 0 1-1.0584 1.323 5.027 5.027 0 0 1-1.852.7937l-2.1167.2646c-1.2347 0-2.3813-.1764-3.4396-.5292a8.4667 8.4667 0 0 1-2.9104-1.5875l2.1166-2.3813c1.2348 1.0584 2.6459 1.5875 4.2334 1.5875l1.3229-.2645.2646-.7938v-.2646l-.5292-.2646-.5292-.2645-1.0583-.5292-2.1167-.5292-1.5875-.7937c-.5291-.1764-.8819-.5292-1.0583-1.0584a3.4396 3.4396 0 0 1-.5292-1.5875v-.2645l.5292-1.5875.7938-1.323c.1764-.3527.7937-.7055 1.852-1.0583.6615-.2205 1.1852-.3376 1.571-.3514zm-57.6626.0867c1.0583 0 2.0285.1764 2.9104.5292l2.3812 1.323-2.1166 2.6457a6.0854 6.0854 0 0 0-1.5875-.7937l-1.5875-.5292a3.175 3.175 0 0 0-2.6459 1.0584 3.7042 3.7042 0 0 0-.7937 2.6458l.2646 1.5875a3.4396 3.4396 0 0 0 1.852 1.852l1.323.2647c.882 0 1.6757-.1764 2.3812-.5292v-1.5875h-2.6458v-2.6458h6.0854v6.0854l-2.6458 1.3229a8.7312 8.7312 0 0 1-6.0854.2646 6.6146 6.6146 0 0 1-4.498-6.6146 6.6146 6.6146 0 0 1 2.1167-4.7625l2.1167-1.5875zm12.7.2646h3.7041l5.8209 13.4938h-4.2334l-.7937-2.3813h-5.2917l-1.0583 2.3813-3.7042-.2646Zm10.8479 0h3.9687l3.175 5.2917 3.175-5.2917h3.9688v13.4938h-3.7042v-7.673l-3.4396 5.0271-3.4395-5.027V114.3H92.075zm16.6687 0h10.848v3.175h-6.8792v1.8521h6.35v3.175h-6.35v2.1167h7.1437V114.3h-11.1125zm-25.6645 4.2333-1.5875 3.9688h3.175zm-2.6459 23.548h32.8084v.2645l-.2646.2646-15.6104 6.6146a1.323 1.323 0 0 1-1.0584 0l-15.6104-6.6146h-.2646z" style="stroke-width:.264583" transform="translate(-47.0958 -32.0146)"/></svg>
