<svg xmlns="http://www.w3.org/2000/svg" viewBox="0 0 276 322"><path d="M251 0H25C7 0 0 7 0 25v227c1 4 1 8 4 12l5 3 5 3 111 47 13 3 12-3 111-47 6-3 4-3c4-4 4-8 4-12l1-6V25c0-18-7-25-25-25"/><path fill="#fff" d="m236 222-1 1v3h-1v1l-1 1v1h-1v1h-1l-1 1h-1l-1 1h-2l-1 1h-9l-1-1h-3v-1h-2l-1-1h-1l-1-1h-1v-1h-1l-1-1v-1l1-1 1-1v-1h1v-1h1v-1l1-1h1l1 1h1v1h1l1 1h2l1 1h8l1-1v-3h-1v-1h-1l-1-1h-3v-1h-4v-1h-3v-1h-2v-1h-1v-1h-1l-1-1-1-1v-1h-1v-3h-1v-4h1v-3l1-1v-1h1v-1h1v-1h1v-1h1l1-1h2v-1h4v-1h4v1h6v1h2l1 1h1v1h2v1h1v2h-1v1l-1 1-1 1v1l-1 1-1 2v1l-1-1h-1v-1h-1l-1-1h-2v-1h-8v1l-1 1v1l1 1 1 1h1l1 1h2l1 1h3l1 1h2v1h2v1h2v1h1v1h1v1l1 1v1h1v5zm-36 10h-29v-37h29v9h-19v6h17v8h-17v6h20v8zm-37 0h-9v-22l-1 1v1h-1v1l-1 1v1h-1v1h-1v2h-1v1l-1 1v1h-1v1l-1 1v1h-1v1l-1 1v-1l-1-1v-1h-1v-2h-1v-1h-1l1-1-1-1v-1h-1v-1l-1-1v-1h-1v-1l-1-1v-1h-1v-1 22h-9v-37h10v1h1v1l1 1v1h1v1h1v2h1v1l1 1 1 1v1l1 1v1h1v1l1 1v-1h1v-1h1v-1l1-1v-1l1-1 1-1v-1l1-1v-1h1v-1l1-1v-1h1v-1h1v-1h10v37zm-59-15v-2h-1v-2l-1-1v-2h-1v-2l-1-1v-1l-1 1v2h-1v2l-1 1v2h-1v2l-1 1h9zm16 15h-10v-1l-1-1v-2h-1v-2l-1-1H93l-1 1v1l-1 1v2l-1 1v1H80v-1l1-1v-2h1v-2h1v-2l1-1v-1l1-1v-2l1-1v-2h1v-2l1-1v-2h1v-2l1-1v-2h1v-2l1-1v-2h1v-3h1v-2l1-1v-2h10v1h1v2l1 1v2h1v2l1 1v2h1v2l1 1v2h1v2l1 1v2h1v2l1 1v2h1v2l1 1v2h1v2l1 1v2h1v2l1 1v1zm-44-5-1 1h-1v1h-1v1h-1l-1 1h-2v1h-2l-1 1h-4v1h-4l-1-1h-4v-1h-3v-1h-2v-1h-1v-1h-1v-1h-1l-1-1v-1h-1v-1l-1-1-1-1v-2h-1v-4h-1v-6l1-1v-3h1v-2l1-1v-1h1v-1l1-1 1-1v-1h1l1-1 1-1h1v-1h1l1-1h2v-1h3l1-1h7v1h4v1h2l1 1h1v1h1l1 1 1 1v1h-1v1h-1v1l-1 1-1 1v1h-1l-1 1-1-1h-1v-1h-1l-1-1h-2v-1h-6v1h-1v1h-1v1h-1l-1 1-1 1v1h-1v2h-1v8h1v1l1 1v1h1v1h1v1h1v1h2l1 1h5v-1h3v-1h1v-5h-8v-7h17v16zM59 111h22V94H59V60h23V43H41v122h42v-17H59v-37m158 4v28c0 5-3 7-7 7h-4c-5 0-7-2-7-7V65c0-5 2-7 7-7h3c5 0 7 2 7 7v24h19V64c0-15-8-23-23-23h-9c-15 0-23 8-23 23v80c0 15 8 22 23 22h9c15 0 23-7 23-22v-29h-18m-65-72h19v122h-19zm-27 54c0 5-2 7-7 7h-8V59h8c5 0 7 2 7 7zm-4-54H92v122h18v-44h11c15 0 23-8 23-23V65c0-15-8-22-23-22zM85 276h107l-55 18-52-18"/></svg>